<svg width="25" height="20" viewBox="0 0 25 20" fill="none" xmlns="http://www.w3.org/2000/svg">
<path d="M5.00447 11.44V9.76H10.1005V15.5C10.1005 16.7507 9.7178 17.7213 8.95247 18.412C8.18714 19.084 7.03914 19.42 5.50847 19.42C3.9778 19.42 2.82047 19.084 2.03647 18.412C1.25247 17.7213 0.860469 16.7507 0.860469 15.5V4.3C0.860469 3.04933 1.24314 2.088 2.00847 1.416C2.7738 0.725333 3.9218 0.379999 5.45247 0.379999C6.98314 0.379999 8.14047 0.725333 8.92447 1.416C9.70847 2.088 10.1005 3.04933 10.1005 4.3V5.84H8.14047V4.3C8.14047 2.80667 7.2538 2.06 5.48047 2.06C3.70714 2.06 2.82047 2.80667 2.82047 4.3V15.5C2.82047 16.9933 3.70714 17.74 5.48047 17.74C7.2538 17.74 8.14047 16.9933 8.14047 15.5V11.44H5.00447ZM17.2405 19H15.2805V0.799999H17.2405V8.92H22.7565V0.799999H24.7165V19H22.7565V10.6H17.2405V19Z" fill="black"/>
</svg>
